<svg width="1140" height="1140" viewBox="0 0 1140 1140" fill="none" xmlns="http://www.w3.org/2000/svg">
<circle cx="570" cy="570" r="570" fill="#21003A"/>
<path d="M397.471 894.375L545.353 809.625V671.023L397.471 743.414V894.375ZM372.824 693.977L528.408 617.613L372.824 541.25L217.239 617.613L372.824 693.977ZM791.824 894.375L939.706 809.625V671.023L791.824 743.414V894.375ZM767.176 693.977L922.761 617.613L767.176 541.25L611.592 617.613L767.176 693.977ZM594.647 564.645L742.529 491.812V374.398L594.647 446.789V564.645ZM570 397.352L739.834 313.926L570 230.5L400.166 313.926L570 397.352ZM989 626V809.625C989 820.219 986.561 830.077 981.683 839.199C976.805 848.322 970.13 855.237 961.657 859.945L789.128 958.82C782.709 962.94 775.392 965 767.176 965C758.961 965 751.644 962.94 745.225 958.82L572.696 859.945C571.669 859.357 570.77 858.768 570 858.18C569.487 858.768 568.588 859.357 567.304 859.945L394.775 958.82C388.356 962.94 381.039 965 372.824 965C364.608 965 357.291 962.94 350.872 958.82L178.343 859.945C169.87 855.237 163.195 848.322 158.317 839.199C153.439 830.077 151 820.219 151 809.625V626C151 614.818 153.76 604.518 159.28 595.102C164.8 585.685 172.053 578.622 181.039 573.914L348.176 491.812V315.25C348.176 304.068 350.936 293.768 356.456 284.352C361.976 274.935 369.229 267.872 378.215 263.164L550.744 178.414C556.65 175.471 563.068 174 570 174C576.932 174 583.35 175.471 589.256 178.414L761.785 263.164C770.771 267.872 778.024 274.935 783.544 284.352C789.064 293.768 791.824 304.068 791.824 315.25V491.812L958.961 573.914C968.204 578.622 975.521 585.685 980.913 595.102C986.304 604.518 989 614.818 989 626Z" fill="#FF5577"/>
</svg>
