<svg viewBox="0 0 200 200" xmlns="http://www.w3.org/2000/svg">
  <path fill="#FF0066" d="M41.2,-71.8C52.9,-64.6,61.4,-52.5,69.9,-39.7C78.3,-26.9,86.7,-13.5,89,1.3C91.3,16.1,87.6,32.3,78.6,44.1C69.5,55.8,55.1,63.2,41.1,68.8C27.2,74.4,13.6,78.2,0,78.2C-13.7,78.3,-27.3,74.7,-40.9,68.9C-54.5,63.1,-68,55.1,-76.8,43.2C-85.6,31.4,-89.7,15.7,-87.7,1.2C-85.6,-13.3,-77.5,-26.7,-68.9,-38.9C-60.4,-51.2,-51.4,-62.3,-39.8,-69.5C-28.3,-76.8,-14.1,-80,0.3,-80.6C14.8,-81.1,29.5,-78.9,41.2,-71.8Z" transform="translate(100 100)" />
</svg>