<?xml version="1.0" standalone="no"?>
<!DOCTYPE svg PUBLIC "-//W3C//DTD SVG 20010904//EN"
 "http://www.w3.org/TR/2001/REC-SVG-20010904/DTD/svg10.dtd">
<svg version="1.0" xmlns="http://www.w3.org/2000/svg"
 width="512.000000pt" height="512.000000pt" viewBox="0 0 512.000000 512.000000"
 preserveAspectRatio="xMidYMid meet">
<metadata>
Created by potrace 1.14, written by Peter Selinger 2001-2017
</metadata>
<g transform="translate(0.000000,512.000000) scale(0.100000,-0.100000)"
fill="#000000" stroke="none">
<path d="M2405 4244 c-28 -8 -57 -16 -65 -19 -91 -27 -755 -288 -787 -309 -57
-38 -96 -97 -109 -164 -4 -20 -8 -228 -8 -461 l-1 -425 -130 -49 c-71 -26
-164 -61 -205 -77 -41 -16 -158 -59 -259 -97 -165 -61 -189 -73 -232 -115 -44
-41 -58 -63 -78 -118 -3 -8 -6 -225 -8 -482 -4 -541 -4 -543 74 -622 38 -39
107 -77 437 -242 215 -108 412 -204 437 -213 45 -18 112 -20 159 -7 14 4 207
98 430 209 223 111 412 200 420 199 8 -2 191 -90 405 -197 215 -107 408 -200
430 -208 84 -29 155 -11 335 83 8 5 159 80 335 168 375 188 405 211 434 325
17 69 15 939 -2 987 -40 110 -80 146 -222 199 -33 13 -69 27 -80 31 -11 5
-150 57 -310 117 l-290 108 -1 430 c-1 237 -4 443 -7 458 -10 49 -62 129 -103
158 -37 27 -100 52 -559 225 -99 37 -191 72 -205 77 -14 6 -27 11 -30 12 -3 0
-23 7 -45 14 -55 19 -101 21 -160 5z m265 -320 c52 -19 104 -38 115 -43 11 -6
120 -47 243 -92 156 -57 220 -85 213 -92 -6 -6 -16 -12 -23 -13 -7 -1 -40 -14
-73 -27 -33 -14 -134 -54 -225 -91 -91 -36 -174 -71 -185 -76 -47 -22 -250
-100 -261 -100 -10 0 -282 107 -369 145 -16 7 -100 41 -185 75 -85 35 -170 69
-187 76 -18 7 -33 15 -33 17 0 2 39 19 88 37 48 17 121 45 162 61 41 15 156
58 255 94 99 37 200 74 225 84 44 18 47 18 95 -1 28 -11 93 -35 145 -54z m584
-789 l1 -275 -30 -11 c-16 -7 -34 -13 -40 -14 -5 -2 -23 -9 -40 -16 -16 -6
-34 -13 -40 -15 -5 -2 -77 -28 -160 -60 -192 -72 -306 -115 -325 -121 -13 -3
-15 29 -15 251 0 157 4 258 10 264 6 5 39 21 75 36 36 15 83 36 105 45 22 10
58 26 80 35 22 10 114 50 205 90 91 40 167 71 169 69 2 -2 5 -127 5 -278z
m-1662 -514 c13 -6 97 -37 188 -71 91 -34 206 -77 255 -96 50 -19 95 -34 100
-34 6 0 22 -6 37 -14 14 -8 43 -19 65 -26 52 -16 93 -34 93 -40 0 -6 1 -6
-345 -146 -467 -189 -425 -174 -465 -157 -122 51 -315 129 -369 149 -35 13
-69 28 -75 33 -6 5 -13 9 -16 8 -3 -1 -24 5 -45 15 -35 14 -68 27 -85 33 -3 1
-16 6 -30 12 -14 6 -47 20 -75 31 l-50 20 35 15 c19 8 129 49 245 92 116 42
224 83 240 90 17 7 53 20 80 30 28 9 59 21 70 26 31 14 99 37 112 38 7 0 22
-3 35 -8z m1971 -52 c89 -33 239 -89 332 -125 94 -35 173 -64 177 -64 3 0 27
-10 54 -21 l48 -22 -45 -17 c-34 -13 -418 -168 -699 -283 -35 -14 -51 -12
-100 10 -14 6 -68 28 -120 49 -52 20 -108 42 -125 49 -16 8 -88 37 -160 65
-71 28 -143 58 -159 66 -16 8 -33 14 -37 14 -12 0 -109 44 -109 50 0 3 71 32
158 64 86 32 184 68 217 81 33 12 103 38 155 58 52 19 104 38 115 43 79 30
112 42 123 43 7 0 86 -26 175 -60z m-1224 -797 l0 -289 -317 -159 c-174 -87
-320 -160 -324 -162 -4 -2 -8 134 -8 302 0 188 4 306 10 306 5 0 37 13 72 30
47 22 555 256 565 259 1 1 1 -129 2 -287z m1831 -1 l0 -290 -321 -160 c-177
-89 -323 -161 -325 -161 -2 0 -4 135 -4 301 l0 300 73 34 c72 33 102 46 292
132 55 25 141 65 190 89 50 23 91 43 93 43 1 1 2 -129 2 -288z"/>
</g>
</svg>
